<svg width="144" height="19" viewBox="0 0 144 19" fill="none" xmlns="http://www.w3.org/2000/svg">
<path d="M10.1962 14H8.56603L2.00954 4.05778V14H0.379371V1.49609H2.00954L8.56603 11.4204V1.49609H10.1962V14ZM17.2565 14.1612C16.3369 14.1612 15.5009 13.9522 14.7486 13.5342C14.0081 13.1162 13.4229 12.5251 12.993 11.7608C12.575 10.9845 12.366 10.0888 12.366 9.07368C12.366 8.0705 12.581 7.18674 13.0109 6.42242C13.4528 5.64615 14.0499 5.05499 14.8023 4.64894C15.5547 4.23095 16.3966 4.02195 17.3282 4.02195C18.2597 4.02195 19.1016 4.23095 19.854 4.64894C20.6064 5.05499 21.1976 5.64018 21.6275 6.4045C22.0694 7.16883 22.2903 8.05855 22.2903 9.07368C22.2903 10.0888 22.0634 10.9845 21.6096 11.7608C21.1677 12.5251 20.5646 13.1162 19.8003 13.5342C19.036 13.9522 18.188 14.1612 17.2565 14.1612ZM17.2565 12.7281C17.8417 12.7281 18.3911 12.5908 18.9046 12.3161C19.4181 12.0414 19.8301 11.6294 20.1406 11.08C20.4631 10.5307 20.6243 9.86189 20.6243 9.07368C20.6243 8.28546 20.4691 7.61668 20.1586 7.06732C19.8481 6.51796 19.442 6.11191 18.9404 5.84917C18.4388 5.57449 17.8954 5.43715 17.3103 5.43715C16.7131 5.43715 16.1638 5.57449 15.6622 5.84917C15.1725 6.11191 14.7784 6.51796 14.4799 7.06732C14.1813 7.61668 14.032 8.28546 14.032 9.07368C14.032 9.87383 14.1753 10.5486 14.4619 11.0979C14.7605 11.6473 15.1546 12.0593 15.6443 12.334C16.1339 12.5967 16.6713 12.7281 17.2565 12.7281ZM26.4221 5.52672V11.3129C26.4221 11.7906 26.5236 12.131 26.7267 12.334C26.9297 12.5251 27.282 12.6206 27.7836 12.6206H28.9838V14H27.5149C26.6072 14 25.9265 13.791 25.4727 13.373C25.0189 12.955 24.792 12.2683 24.792 11.3129V5.52672H23.5201V4.18318H24.792V1.71106H26.4221V4.18318H28.9838V5.52672H26.4221ZM35.8316 4.00404C36.572 4.00404 37.2408 4.16527 37.8379 4.48772C38.435 4.79822 38.9008 5.26996 39.2352 5.90291C39.5815 6.53587 39.7547 7.30617 39.7547 8.21381V14H38.1424V8.44669C38.1424 7.4674 37.8976 6.72098 37.408 6.20745C36.9183 5.68198 36.2495 5.41924 35.4016 5.41924C34.5417 5.41924 33.8551 5.68795 33.3415 6.22536C32.8399 6.76278 32.5891 7.54502 32.5891 8.57209V14H30.959V0.743709H32.5891V5.58046C32.9116 5.07887 33.3535 4.69074 33.9148 4.41606C34.488 4.14138 35.1269 4.00404 35.8316 4.00404ZM43.2595 2.58884C42.949 2.58884 42.6863 2.48136 42.4713 2.26639C42.2563 2.05142 42.1489 1.78869 42.1489 1.47818C42.1489 1.16767 42.2563 0.904934 42.4713 0.689967C42.6863 0.475 42.949 0.367517 43.2595 0.367517C43.5581 0.367517 43.8089 0.475 44.0119 0.689967C44.2269 0.904934 44.3344 1.16767 44.3344 1.47818C44.3344 1.78869 44.2269 2.05142 44.0119 2.26639C43.8089 2.48136 43.5581 2.58884 43.2595 2.58884ZM44.0477 4.18318V14H42.4176V4.18318H44.0477ZM51.6091 4.00404C52.8033 4.00404 53.7707 4.36829 54.5111 5.09679C55.2516 5.81334 55.6218 6.85235 55.6218 8.21381V14H54.0095V8.44669C54.0095 7.4674 53.7647 6.72098 53.2751 6.20745C52.7854 5.68198 52.1166 5.41924 51.2687 5.41924C50.4089 5.41924 49.7222 5.68795 49.2086 6.22536C48.707 6.76278 48.4562 7.54502 48.4562 8.57209V14H46.8261V4.18318H48.4562V5.58046C48.7787 5.07887 49.2146 4.69074 49.764 4.41606C50.3253 4.14138 50.9403 4.00404 51.6091 4.00404ZM62.3332 4.02195C63.1811 4.02195 63.9216 4.20706 64.5545 4.57728C65.1994 4.94751 65.6771 5.41327 65.9877 5.97457V4.18318H67.6357V14.215C67.6357 15.1107 67.4447 15.9048 67.0625 16.5975C66.6803 17.3021 66.131 17.8515 65.4144 18.2456C64.7098 18.6397 63.8858 18.8368 62.9423 18.8368C61.6525 18.8368 60.5777 18.5322 59.7178 17.9231C58.8579 17.3141 58.3504 16.4841 58.1951 15.4331H59.8074C59.9865 16.0302 60.3567 16.5079 60.918 16.8662C61.4793 17.2364 62.1541 17.4216 62.9423 17.4216C63.838 17.4216 64.5665 17.1409 65.1278 16.5796C65.701 16.0183 65.9877 15.2301 65.9877 14.215V12.1549C65.6652 12.7281 65.1875 13.2058 64.5545 13.588C63.9216 13.9701 63.1811 14.1612 62.3332 14.1612C61.4614 14.1612 60.6672 13.9463 59.9507 13.5163C59.2461 13.0864 58.6907 12.4833 58.2847 11.707C57.8786 10.9308 57.6756 10.047 57.6756 9.05576C57.6756 8.05258 57.8786 7.1748 58.2847 6.42242C58.6907 5.65809 59.2461 5.06693 59.9507 4.64894C60.6672 4.23095 61.4614 4.02195 62.3332 4.02195ZM65.9877 9.07368C65.9877 8.33323 65.8384 7.68833 65.5398 7.13897C65.2412 6.58961 64.8352 6.17162 64.3217 5.885C63.8201 5.58644 63.2647 5.43715 62.6557 5.43715C62.0466 5.43715 61.4913 5.58046 60.9897 5.86709C60.4881 6.15371 60.088 6.5717 59.7894 7.12106C59.4909 7.67042 59.3416 8.31532 59.3416 9.05576C59.3416 9.80815 59.4909 10.465 59.7894 11.0263C60.088 11.5757 60.4881 11.9996 60.9897 12.2982C61.4913 12.5848 62.0466 12.7281 62.6557 12.7281C63.2647 12.7281 63.8201 12.5848 64.3217 12.2982C64.8352 11.9996 65.2412 11.5757 65.5398 11.0263C65.8384 10.465 65.9877 9.81412 65.9877 9.07368ZM77.1549 5.52672V11.3129C77.1549 11.7906 77.2564 12.131 77.4594 12.334C77.6624 12.5251 78.0147 12.6206 78.5163 12.6206H79.7166V14H78.2476C77.34 14 76.6593 13.791 76.2054 13.373C75.7516 12.955 75.5247 12.2683 75.5247 11.3129V5.52672H74.2528V4.18318H75.5247V1.71106H77.1549V4.18318H79.7166V5.52672H77.1549ZM85.9731 14.1612C85.0536 14.1612 84.2176 13.9522 83.4652 13.5342C82.7247 13.1162 82.1396 12.5251 81.7096 11.7608C81.2916 10.9845 81.0826 10.0888 81.0826 9.07368C81.0826 8.0705 81.2976 7.18674 81.7275 6.42242C82.1694 5.64615 82.7665 5.05499 83.5189 4.64894C84.2713 4.23095 85.1133 4.02195 86.0448 4.02195C86.9763 4.02195 87.8183 4.23095 88.5707 4.64894C89.323 5.05499 89.9142 5.64018 90.3441 6.4045C90.786 7.16883 91.0069 8.05855 91.0069 9.07368C91.0069 10.0888 90.78 10.9845 90.3262 11.7608C89.8843 12.5251 89.2812 13.1162 88.5169 13.5342C87.7526 13.9522 86.9047 14.1612 85.9731 14.1612ZM85.9731 12.7281C86.5583 12.7281 87.1077 12.5908 87.6212 12.3161C88.1347 12.0414 88.5468 11.6294 88.8573 11.08C89.1797 10.5307 89.3409 9.86189 89.3409 9.07368C89.3409 8.28546 89.1857 7.61668 88.8752 7.06732C88.5647 6.51796 88.1586 6.11191 87.657 5.84917C87.1555 5.57449 86.6121 5.43715 86.0269 5.43715C85.4297 5.43715 84.8804 5.57449 84.3788 5.84917C83.8891 6.11191 83.495 6.51796 83.1965 7.06732C82.8979 7.61668 82.7486 8.28546 82.7486 9.07368C82.7486 9.87383 82.8919 10.5486 83.1786 11.0979C83.4771 11.6473 83.8712 12.0593 84.3609 12.334C84.8505 12.5967 85.3879 12.7281 85.9731 12.7281ZM101.401 14.1612C100.649 14.1612 99.9743 14.0358 99.3772 13.785C98.7801 13.5223 98.3083 13.164 97.962 12.7102C97.6157 12.2444 97.4246 11.713 97.3888 11.1159H99.0727C99.1204 11.6055 99.3474 12.0056 99.7534 12.3161C100.171 12.6266 100.715 12.7819 101.384 12.7819C102.005 12.7819 102.494 12.6445 102.853 12.3698C103.211 12.0952 103.39 11.7488 103.39 11.3308C103.39 10.9009 103.199 10.5844 102.817 10.3814C102.435 10.1664 101.843 9.95743 101.043 9.7544C100.315 9.56332 99.7176 9.37224 99.2518 9.18116C98.798 8.97813 98.4039 8.68554 98.0695 8.30338C97.747 7.90927 97.5858 7.39574 97.5858 6.76278C97.5858 6.26119 97.7351 5.8014 98.0337 5.38341C98.3322 4.96542 98.7562 4.637 99.3056 4.39815C99.8549 4.14735 100.482 4.02195 101.187 4.02195C102.273 4.02195 103.151 4.29663 103.82 4.84599C104.489 5.39535 104.847 6.14774 104.895 7.10315H103.265C103.229 6.58961 103.02 6.17759 102.638 5.86709C102.267 5.55658 101.766 5.40132 101.133 5.40132C100.548 5.40132 100.082 5.52672 99.7355 5.77752C99.3892 6.02831 99.216 6.35673 99.216 6.76278C99.216 7.08523 99.3175 7.35394 99.5205 7.56891C99.7355 7.77193 99.9982 7.93913 100.309 8.0705C100.631 8.18992 101.073 8.32726 101.634 8.48252C102.339 8.6736 102.912 8.86468 103.354 9.05576C103.796 9.2349 104.172 9.50958 104.483 9.8798C104.805 10.25 104.972 10.7337 104.984 11.3308C104.984 11.8682 104.835 12.3519 104.536 12.7819C104.238 13.2118 103.814 13.5522 103.265 13.8029C102.727 14.0418 102.106 14.1612 101.401 14.1612ZM112.158 4.00404C112.899 4.00404 113.567 4.16527 114.164 4.48772C114.762 4.79822 115.227 5.26996 115.562 5.90291C115.908 6.53587 116.081 7.30617 116.081 8.21381V14H114.469V8.44669C114.469 7.4674 114.224 6.72098 113.735 6.20745C113.245 5.68198 112.576 5.41924 111.728 5.41924C110.868 5.41924 110.182 5.68795 109.668 6.22536C109.166 6.76278 108.916 7.54502 108.916 8.57209V14H107.286V0.743709H108.916V5.58046C109.238 5.07887 109.68 4.69074 110.241 4.41606C110.815 4.14138 111.453 4.00404 112.158 4.00404ZM123.026 14.1612C122.106 14.1612 121.27 13.9522 120.518 13.5342C119.777 13.1162 119.192 12.5251 118.762 11.7608C118.344 10.9845 118.135 10.0888 118.135 9.07368C118.135 8.0705 118.35 7.18674 118.78 6.42242C119.222 5.64615 119.819 5.05499 120.571 4.64894C121.324 4.23095 122.166 4.02195 123.097 4.02195C124.029 4.02195 124.871 4.23095 125.623 4.64894C126.375 5.05499 126.967 5.64018 127.397 6.4045C127.838 7.16883 128.059 8.05855 128.059 9.07368C128.059 10.0888 127.832 10.9845 127.379 11.7608C126.937 12.5251 126.334 13.1162 125.569 13.5342C124.805 13.9522 123.957 14.1612 123.026 14.1612ZM123.026 12.7281C123.611 12.7281 124.16 12.5908 124.674 12.3161C125.187 12.0414 125.599 11.6294 125.91 11.08C126.232 10.5307 126.393 9.86189 126.393 9.07368C126.393 8.28546 126.238 7.61668 125.928 7.06732C125.617 6.51796 125.211 6.11191 124.709 5.84917C124.208 5.57449 123.664 5.43715 123.079 5.43715C122.482 5.43715 121.933 5.57449 121.431 5.84917C120.942 6.11191 120.547 6.51796 120.249 7.06732C119.95 7.61668 119.801 8.28546 119.801 9.07368C119.801 9.87383 119.944 10.5486 120.231 11.0979C120.53 11.6473 120.924 12.0593 121.413 12.334C121.903 12.5967 122.44 12.7281 123.026 12.7281ZM143.28 4.18318L140.217 14H138.533L136.168 6.20745L133.803 14H132.119L129.038 4.18318H130.704L132.961 12.4236L135.398 4.18318H137.064L139.446 12.4415L141.668 4.18318H143.28Z" fill="#8F8F8F"/>
</svg>
